<?xml version="1.0" standalone="no"?>
<!DOCTYPE svg PUBLIC "-//W3C//DTD SVG 20010904//EN"
 "http://www.w3.org/TR/2001/REC-SVG-20010904/DTD/svg10.dtd">
<svg version="1.0" xmlns="http://www.w3.org/2000/svg"
 width="416.000000pt" height="416.000000pt" viewBox="0 0 416.000000 416.000000"
 preserveAspectRatio="xMidYMid meet">

<g transform="translate(0.000000,416.000000) scale(0.100000,-0.100000)"
fill="#000000" stroke="none">
<path d="M1939 3330 c-284 -33 -537 -157 -745 -364 -113 -113 -186 -216 -250
-350 -39 -83 -94 -248 -94 -282 0 -11 18 -14 75 -14 l74 0 22 72 c11 40 32 97
45 128 35 78 116 210 130 210 6 0 40 -13 75 -29 35 -15 94 -38 130 -50 l67
-22 -13 -42 c-14 -46 -45 -219 -45 -249 0 -16 9 -18 75 -18 l74 0 6 38 c10 63
44 225 48 229 3 2 44 -4 93 -12 49 -9 135 -19 192 -22 l102 -6 0 -114 0 -113
80 0 80 0 0 113 0 114 103 6 c56 3 142 13 191 22 49 8 91 13 93 11 3 -3 17
-63 31 -135 l26 -131 73 0 c64 0 73 2 73 18 0 30 -31 203 -45 249 l-13 42 67
22 c36 12 95 35 130 50 35 16 69 29 75 29 29 0 137 -209 175 -337 l22 -73 74
0 c57 0 75 3 75 14 0 34 -55 199 -94 282 -64 134 -137 237 -250 350 -184 184
-392 296 -646 348 -96 19 -283 27 -381 16z m61 -416 l0 -217 -85 6 c-126 9
-245 29 -245 41 0 41 100 205 168 278 41 44 132 108 155 108 4 0 7 -97 7 -216z
m211 195 c55 -28 123 -91 174 -164 46 -65 105 -176 105 -198 0 -15 -104 -34
-245 -44 l-85 -6 0 217 c0 119 2 216 5 216 3 0 24 -9 46 -21z m-541 -51 c-28
-35 -74 -111 -103 -171 -49 -101 -53 -107 -79 -102 -41 7 -188 65 -188 75 0 9
115 103 183 149 52 35 204 110 224 111 7 0 -10 -28 -37 -62z m875 23 c46 -21
105 -54 132 -72 68 -46 183 -140 183 -149 0 -10 -147 -68 -188 -75 -26 -5 -30
1 -79 102 -29 60 -75 136 -103 171 -27 34 -45 62 -39 62 6 0 48 -18 94 -39z"/>
<path d="M1271 2138 c17 -46 40 -109 51 -140 l20 -58 47 0 48 0 39 100 c21 55
41 100 44 100 3 0 23 -45 45 -100 l40 -100 45 0 46 0 49 135 c28 74 52 135 55
135 3 0 27 -61 54 -135 l48 -135 48 0 47 0 39 100 c21 55 41 100 44 100 3 0
23 -45 45 -100 l40 -100 45 0 46 0 49 135 c28 74 52 135 55 135 3 0 27 -61 54
-135 l48 -135 48 0 47 0 39 100 c21 55 41 100 44 100 3 0 23 -45 44 -100 l39
-100 46 0 47 0 21 58 c12 31 35 94 52 140 l30 82 -43 0 -44 0 -33 -97 -32 -97
-37 94 -36 95 -51 3 -51 3 -31 -76 c-18 -42 -36 -86 -40 -98 -6 -17 -14 -2
-40 76 l-33 97 -88 0 -88 0 -33 -97 -32 -97 -36 95 -36 94 -51 3 -51 3 -40
-97 -41 -97 -32 97 -32 96 -88 0 -88 0 -33 -97 -32 -97 -36 95 -36 94 -51 3
-51 3 -40 -97 -41 -97 -32 97 -32 96 -44 0 -43 0 30 -82z"/>
<path d="M850 1826 c0 -34 55 -199 94 -282 64 -134 137 -237 250 -350 185
-185 385 -292 651 -350 110 -24 360 -24 470 0 266 58 466 165 651 350 113 113
186 216 250 350 39 83 94 248 94 282 0 11 -18 14 -74 14 l-74 0 -22 -72 c-28
-94 -80 -207 -131 -285 l-40 -61 -72 33 c-40 18 -102 42 -138 54 l-67 22 13
42 c14 46 45 219 45 249 0 16 -9 18 -73 18 l-73 0 -26 -131 c-14 -72 -28 -132
-31 -135 -2 -2 -44 2 -93 11 -49 8 -135 18 -191 22 l-103 6 0 114 0 113 -80 0
-80 0 0 -113 0 -114 -102 -6 c-57 -4 -143 -14 -192 -22 -49 -9 -90 -14 -93
-12 -4 4 -38 166 -48 230 l-6 37 -74 0 c-66 0 -75 -2 -75 -18 0 -30 31 -203
45 -249 l13 -42 -67 -22 c-36 -12 -98 -36 -138 -54 l-72 -33 -40 61 c-51 79
-103 192 -130 285 l-22 72 -74 0 c-57 0 -75 -3 -75 -14z m1150 -581 c0 -118
-2 -215 -5 -215 -3 0 -24 9 -46 21 -87 44 -188 163 -249 290 -16 35 -30 69
-30 75 0 13 179 41 273 43 l57 1 0 -215z m368 199 c90 -12 122 -20 122 -31 0
-20 -56 -129 -100 -193 -46 -68 -123 -141 -178 -169 -23 -12 -44 -21 -47 -21
-3 0 -5 97 -5 215 l0 215 43 0 c23 0 97 -7 165 -16z m-801 -172 c29 -59 75
-135 103 -169 27 -35 45 -63 39 -63 -24 0 -183 82 -251 129 -93 66 -165 128
-156 136 10 10 181 74 198 74 9 0 35 -42 67 -107z m1212 68 c45 -17 81 -35 81
-40 0 -9 -115 -103 -183 -149 -53 -36 -207 -111 -228 -111 -7 0 1 15 19 33 38
40 122 178 153 253 27 65 26 65 158 14z"/>
</g>
</svg>
