<?xml version="1.0" standalone="no"?>
<!DOCTYPE svg PUBLIC "-//W3C//DTD SVG 20010904//EN"
 "http://www.w3.org/TR/2001/REC-SVG-20010904/DTD/svg10.dtd">
<svg version="1.0" xmlns="http://www.w3.org/2000/svg"
 width="512.000000pt" height="512.000000pt" viewBox="0 0 512.000000 512.000000"
 preserveAspectRatio="xMidYMid meet">

<g transform="translate(0.000000,512.000000) scale(0.100000,-0.100000)"
fill="#000000" stroke="none">
<path d="M2185 4789 c-390 -41 -794 -209 -1098 -457 -538 -440 -825 -1129
-757 -1813 101 -995 883 -1772 1883 -1870 122 -12 371 -7 469 10 39 6 53 4 75
-11 16 -10 59 -28 96 -39 142 -44 305 -8 403 88 23 23 68 84 99 137 32 53 60
96 63 96 3 0 128 -121 276 -268 226 -224 281 -274 334 -300 129 -63 261 -68
380 -12 54 25 91 55 199 163 108 108 138 145 163 199 56 119 51 251 -12 380
-26 53 -75 107 -294 328 l-263 265 22 27 c12 14 60 51 107 81 94 62 129 100
168 185 50 109 37 290 -26 385 -15 22 -17 36 -11 75 17 98 22 347 10 469 -98
1001 -871 1780 -1870 1882 -117 12 -298 12 -416 0z m302 -329 c130 -58 278
-283 378 -569 35 -104 95 -326 95 -355 0 -14 -60 -16 -560 -16 -500 0 -560 2
-560 16 0 8 13 68 30 133 122 482 336 811 530 811 25 0 64 -9 87 -20z m-742
-197 c-87 -177 -170 -422 -210 -625 -9 -46 -19 -91 -21 -100 -5 -17 -30 -18
-344 -18 l-339 0 34 60 c133 236 335 453 565 607 97 65 321 178 362 182 4 1
-17 -47 -47 -106z m1365 67 c351 -158 627 -409 823 -747 l36 -63 -339 0 -340
0 -5 23 c-3 12 -14 65 -25 117 -48 219 -119 428 -205 603 -30 59 -49 107 -44
107 5 0 49 -18 99 -40z m-1657 -1262 c-10 -171 -10 -525 0 -696 l8 -132 -377
2 -378 3 -12 41 c-44 151 -64 429 -45 609 12 106 44 275 56 295 4 6 152 10
381 10 l375 0 -8 -132z m1562 120 c6 -19 26 -320 21 -325 -2 -2 -91 18 -197
44 -322 78 -428 66 -560 -66 -119 -119 -141 -229 -90 -450 17 -74 31 -139 31
-143 0 -5 -98 -7 -217 -6 l-218 3 -7 60 c-16 148 -20 517 -9 695 7 101 15 188
17 192 3 4 280 8 615 8 479 0 611 -3 614 -12z m1091 -34 c26 -89 45 -235 51
-380 3 -84 3 -159 0 -167 -5 -12 -37 -7 -204 33 -109 26 -286 69 -394 94
l-196 47 -7 122 c-3 67 -9 161 -13 210 l-6 87 379 -2 378 -3 12 -41z m-758
-698 c424 -101 783 -191 797 -200 63 -41 85 -134 43 -173 -13 -11 -101 -67
-196 -123 -95 -57 -182 -115 -193 -128 -29 -38 -40 -91 -28 -137 9 -34 64 -94
343 -375 183 -184 343 -348 354 -364 14 -18 22 -43 22 -69 0 -38 -6 -47 -108
-149 -103 -102 -111 -108 -150 -108 -56 0 -81 22 -452 394 -342 343 -348 348
-429 326 -21 -5 -49 -19 -63 -29 -13 -11 -71 -98 -128 -193 -56 -95 -112 -183
-123 -196 -39 -42 -132 -20 -172 42 -17 25 -384 1549 -385 1594 0 30 42 72 72
72 13 0 371 -83 796 -184z m-1833 -558 c3 -13 14 -66 25 -118 48 -219 119
-428 206 -603 63 -127 70 -125 -114 -36 -188 90 -315 181 -472 339 -132 131
-215 239 -295 380 l-34 60 339 0 340 0 5 -22z m789 5 c3 -10 53 -218 111 -462
81 -343 102 -447 93 -453 -28 -18 -95 -30 -137 -24 -185 25 -386 349 -501 807
-17 65 -30 125 -30 133 0 14 28 16 229 16 210 0 230 -1 235 -17z"/>
</g>
</svg>
